<svg width="27" height="30" viewBox="0 0 27 30" fill="none" xmlns="http://www.w3.org/2000/svg">
<path d="M19.7865 0C24.42 0 27 2.67 27 7.245V22.74C27 27.39 24.42 30 19.7865 30H7.215C2.655 30 0 27.39 0 22.74V7.245C0 2.67 2.655 0 7.215 0H19.7865ZM7.62 20.61C7.17 20.565 6.735 20.775 6.495 21.165C6.255 21.54 6.255 22.035 6.495 22.425C6.735 22.8 7.17 23.025 7.62 22.965H19.38C19.9785 22.905 20.43 22.3935 20.43 21.795C20.43 21.18 19.9785 20.67 19.38 20.61H7.62ZM19.38 13.7685H7.62C6.9735 13.7685 6.45 14.295 6.45 14.94C6.45 15.585 6.9735 16.11 7.62 16.11H19.38C20.025 16.11 20.55 15.585 20.55 14.94C20.55 14.295 20.025 13.7685 19.38 13.7685ZM12.1035 6.975H7.62V6.99C6.9735 6.99 6.45 7.515 6.45 8.16C6.45 8.805 6.9735 9.33 7.62 9.33H12.1035C12.75 9.33 13.275 8.805 13.275 8.1435C13.275 7.5 12.75 6.975 12.1035 6.975Z" fill="#80694D"/>
</svg>
